<svg width="128" height="128" viewBox="0 0 128 128" fill="none" xmlns="http://www.w3.org/2000/svg">
  <defs>
    <linearGradient id="shield-fill" x1="20" y1="18" x2="105" y2="112" gradientUnits="userSpaceOnUse">
      <stop stop-color="#FB7185"/>
      <stop offset="0.52" stop-color="#F97316"/>
      <stop offset="1" stop-color="#FDBA74"/>
    </linearGradient>
    <linearGradient id="ring-fill" x1="34" y1="25" x2="88" y2="96" gradientUnits="userSpaceOnUse">
      <stop stop-color="white" stop-opacity="0.95"/>
      <stop offset="1" stop-color="#FFF7ED" stop-opacity="0.68"/>
    </linearGradient>
  </defs>
  <rect x="8" y="8" width="112" height="112" rx="34" fill="#0F172A"/>
  <rect x="8.5" y="8.5" width="111" height="111" rx="33.5" stroke="white" stroke-opacity="0.08"/>
  <path d="M64 22L96 34V58C96 79.5 83 98.9 64 108C45 98.9 32 79.5 32 58V34L64 22Z" fill="url(#shield-fill)"/>
  <path d="M64 31L88 39.8V57.1C88 73.7 78.3 88.4 64 96.2C49.7 88.4 40 73.7 40 57.1V39.8L64 31Z" fill="#111827" fill-opacity="0.22"/>
  <path d="M64 44C54.1 44 46 52.1 46 62C46 71.9 54.1 80 64 80C73.9 80 82 71.9 82 62C82 52.1 73.9 44 64 44ZM64 52C69.5 52 74 56.5 74 62C74 67.5 69.5 72 64 72C58.5 72 54 67.5 54 62C54 56.5 58.5 52 64 52Z" fill="url(#ring-fill)"/>
  <path d="M64 56C60.7 56 58 58.7 58 62C58 65.3 60.7 68 64 68C67.3 68 70 65.3 70 62C70 58.7 67.3 56 64 56Z" fill="#F97316"/>
  <path d="M82.5 34.3L90.8 37.5C93 38.3 94.1 40.8 93.2 43L90.7 49.2" stroke="white" stroke-opacity="0.38" stroke-width="3.5" stroke-linecap="round"/>
</svg>
